# Blender v2.76 (sub 0) OBJ File: 'bebelcube.blend'
# www.blender.org
mtllib bebelcube.mtl
o Cube
v 1.000000 -0.937000 -0.937000
v 0.937000 -1.000000 -0.937000
v 0.937000 -0.937000 -1.000000
v 0.989498 -0.956661 -0.929942
v 0.958783 -0.974125 -0.909159
v 0.997009 -0.937000 -0.956536
v 0.983881 -0.957336 -0.947883
v 0.955782 -0.973330 -0.928033
v 0.988145 -0.937000 -0.974165
v 0.971598 -0.956696 -0.960145
v 0.949951 -0.970586 -0.941703
v 0.937000 -0.997007 -0.956539
v 0.929985 -0.988027 -0.966875
v 0.956536 -0.997009 -0.937000
v 0.957095 -0.993442 -0.957186
v 0.944810 -0.984900 -0.961502
v 0.966872 -0.988030 -0.929984
v 0.961547 -0.984857 -0.944833
v 0.952238 -0.978921 -0.952219
v 0.956539 -0.937000 -0.997007
v 0.974169 -0.937000 -0.988143
v 0.929942 -0.956657 -0.989498
v 0.948171 -0.957242 -0.984085
v 0.960174 -0.956672 -0.971716
v 0.909160 -0.974122 -0.958785
v 0.928056 -0.973375 -0.955740
v 0.941685 -0.970604 -0.949951
v 1.000000 -0.937000 0.937000
v 0.937000 -0.937000 1.000000
v 0.937000 -1.000000 0.937000
v 0.997007 -0.937000 0.956539
v 0.988143 -0.937000 0.974169
v 0.989498 -0.956657 0.929942
v 0.984085 -0.957242 0.948171
v 0.971716 -0.956672 0.960173
v 0.958785 -0.974122 0.909160
v 0.955740 -0.973375 0.928056
v 0.949951 -0.970604 0.941685
v 0.929943 -0.956661 0.989498
v 0.909160 -0.974125 0.958783
v 0.956536 -0.937000 0.997009
v 0.947883 -0.957336 0.983881
v 0.928033 -0.973330 0.955782
v 0.974165 -0.937000 0.988145
v 0.960145 -0.956696 0.971598
v 0.941703 -0.970586 0.949951
v 0.956539 -0.997007 0.937000
v 0.966875 -0.988027 0.929985
v 0.937000 -0.997009 0.956536
v 0.957186 -0.993442 0.957095
v 0.961502 -0.984900 0.944810
v 0.929985 -0.988030 0.966872
v 0.944833 -0.984857 0.961547
v 0.952220 -0.978921 0.952238
v -0.937000 -0.937000 1.000000
v -1.000000 -0.937000 0.937000
v -0.937000 -1.000000 0.937000
v -0.956539 -0.937000 0.997007
v -0.974169 -0.937000 0.988143
v -0.929942 -0.956657 0.989498
v -0.948171 -0.957242 0.984085
v -0.960174 -0.956672 0.971716
v -0.909160 -0.974122 0.958785
v -0.928056 -0.973375 0.955740
v -0.941685 -0.970604 0.949950
v -0.989498 -0.956661 0.929942
v -0.958783 -0.974125 0.909159
v -0.997009 -0.937000 0.956535
v -0.983881 -0.957336 0.947883
v -0.955782 -0.973330 0.928033
v -0.988146 -0.937000 0.974165
v -0.971598 -0.956696 0.960145
v -0.949951 -0.970586 0.941703
v -0.937000 -0.997007 0.956539
v -0.929985 -0.988027 0.966875
v -0.956536 -0.997009 0.937000
v -0.957095 -0.993442 0.957186
v -0.944810 -0.984900 0.961502
v -0.966872 -0.988030 0.929984
v -0.961547 -0.984857 0.944833
v -0.952238 -0.978921 0.952219
v -0.937000 -0.937000 -1.000000
v -0.937000 -1.000000 -0.937000
v -1.000000 -0.937000 -0.937000
v -0.929942 -0.956661 -0.989498
v -0.909159 -0.974125 -0.958783
v -0.956535 -0.937000 -0.997009
v -0.947882 -0.957336 -0.983881
v -0.928033 -0.973330 -0.955783
v -0.974165 -0.937000 -0.988146
v -0.960144 -0.956696 -0.971598
v -0.941702 -0.970586 -0.949951
v -0.956538 -0.997007 -0.937000
v -0.966875 -0.988027 -0.929985
v -0.937000 -0.997009 -0.956536
v -0.957186 -0.993442 -0.957095
v -0.961502 -0.984900 -0.944810
v -0.929984 -0.988030 -0.966872
v -0.944833 -0.984857 -0.961548
v -0.952219 -0.978921 -0.952238
v -0.997007 -0.937000 -0.956539
v -0.988143 -0.937000 -0.974169
v -0.989498 -0.956657 -0.929942
v -0.984085 -0.957242 -0.948171
v -0.971715 -0.956672 -0.960174
v -0.958785 -0.974122 -0.909160
v -0.955740 -0.973375 -0.928057
v -0.949950 -0.970604 -0.941685
v 0.932258 0.937100 -0.994938
v 0.937000 1.000000 -0.936999
v 0.994937 0.937100 -0.932255
v 0.922894 0.956542 -0.981996
v 0.932237 0.974080 -0.983119
v 0.952159 0.937090 -0.992446
v 0.942686 0.957179 -0.978485
v 0.950613 0.973248 -0.979036
v 0.969219 0.937100 -0.983127
v 0.958741 0.956479 -0.970176
v 0.962795 0.970411 -0.971226
v 0.956539 0.997007 -0.936999
v 0.974169 0.988143 -0.936999
v 0.937000 0.997009 -0.956535
v 0.957187 0.993442 -0.957094
v 0.973350 0.985051 -0.956451
v 0.937000 0.988145 -0.974165
v 0.956476 0.985007 -0.973395
v 0.969439 0.979015 -0.969457
v 0.992389 0.937091 -0.952107
v 0.983107 0.937101 -0.969203
v 0.981999 0.956538 -0.922892
v 0.978486 0.957089 -0.942775
v 0.970221 0.956456 -0.958695
v 0.983122 0.974077 -0.932236
v 0.979091 0.973295 -0.950730
v 0.971262 0.970430 -0.962809
v 0.932255 0.937100 0.994937
v 0.994938 0.937100 0.932258
v 0.936999 1.000000 0.937001
v 0.952107 0.937091 0.992389
v 0.969203 0.937101 0.983107
v 0.922893 0.956538 0.981999
v 0.942775 0.957089 0.978486
v 0.958695 0.956456 0.970221
v 0.932236 0.974077 0.983122
v 0.950731 0.973295 0.979092
v 0.962809 0.970430 0.971262
v 0.981997 0.956542 0.922894
v 0.983119 0.974080 0.932237
v 0.992446 0.937090 0.952159
v 0.978485 0.957179 0.942686
v 0.979036 0.973248 0.950613
v 0.983127 0.937100 0.969219
v 0.970177 0.956479 0.958741
v 0.971226 0.970411 0.962795
v 0.936999 0.997007 0.956540
v 0.936999 0.988143 0.974169
v 0.956535 0.997009 0.937001
v 0.957094 0.993442 0.957187
v 0.956451 0.985051 0.973350
v 0.974165 0.988145 0.937001
v 0.973395 0.985007 0.956476
v 0.969457 0.979015 0.969440
v -0.994937 0.937100 0.932255
v -0.932258 0.937100 0.994938
v -0.937000 1.000000 0.937000
v -0.992389 0.937091 0.952107
v -0.983107 0.937101 0.969203
v -0.981999 0.956538 0.922893
v -0.978486 0.957089 0.942775
v -0.970221 0.956456 0.958695
v -0.983122 0.974077 0.932236
v -0.979091 0.973295 0.950731
v -0.971261 0.970430 0.962810
v -0.922893 0.956542 0.981997
v -0.932237 0.974080 0.983119
v -0.952159 0.937090 0.992446
v -0.942686 0.957179 0.978485
v -0.950613 0.973248 0.979036
v -0.969219 0.937100 0.983128
v -0.958741 0.956479 0.970177
v -0.962795 0.970411 0.971227
v -0.956539 0.997007 0.937000
v -0.974169 0.988143 0.937000
v -0.937000 0.997009 0.956535
v -0.957187 0.993442 0.957094
v -0.973350 0.985051 0.956452
v -0.937000 0.988145 0.974165
v -0.956476 0.985007 0.973395
v -0.969439 0.979015 0.969457
v -0.994939 0.937100 -0.932258
v -0.937000 1.000000 -0.937000
v -0.932256 0.937100 -0.994937
v -0.981997 0.956542 -0.922893
v -0.983119 0.974080 -0.932237
v -0.992446 0.937090 -0.952159
v -0.978485 0.957179 -0.942685
v -0.979037 0.973248 -0.950613
v -0.983128 0.937100 -0.969219
v -0.970177 0.956479 -0.958741
v -0.971227 0.970411 -0.962794
v -0.937000 0.997007 -0.956539
v -0.937000 0.988143 -0.974169
v -0.956535 0.997009 -0.937000
v -0.957094 0.993442 -0.957186
v -0.956452 0.985051 -0.973350
v -0.974165 0.988145 -0.937000
v -0.973395 0.985007 -0.956476
v -0.969457 0.979015 -0.969439
v -0.952107 0.937091 -0.992389
v -0.969203 0.937101 -0.983107
v -0.922893 0.956538 -0.981998
v -0.942775 0.957089 -0.978486
v -0.958696 0.956456 -0.970220
v -0.932236 0.974077 -0.983122
v -0.950731 0.973295 -0.979091
v -0.962810 0.970430 -0.971261
vn -0.000000 0.002700 -1.000000
vn 0.000000 0.002700 1.000000
vn -1.000000 0.002700 0.000000
vn 0.000000 1.000000 0.000000
vn 1.000000 0.002700 -0.000000
vn 0.815200 -0.551300 -0.177300
vn 0.436000 -0.893800 -0.105000
vn 0.784500 0.608000 -0.122100
vn 0.590000 -0.682100 -0.432000
vn 0.292900 -0.900300 -0.322100
vn 0.722500 0.642900 -0.254500
vn 0.158600 -0.974500 -0.158700
vn 0.207600 -0.482700 -0.850800
vn 0.125000 0.610700 -0.781900
vn 0.849300 -0.484900 -0.208800
vn 0.636000 0.431500 -0.639700
vn 0.252500 0.640900 -0.724900
vn 0.173700 -0.547700 -0.818500
vn 0.436300 -0.678800 -0.590700
vn 0.477700 -0.738600 -0.475700
vn 0.103400 -0.893600 -0.436800
vn 0.323500 -0.900400 -0.291000
vn 0.311900 -0.898100 -0.310100
vn 0.477100 0.736300 -0.479800
vn 0.818500 -0.547700 0.173700
vn 0.590700 -0.678800 0.436300
vn 0.475700 -0.738600 0.477700
vn 0.436800 -0.893600 0.103400
vn 0.291000 -0.900400 0.323500
vn 0.310100 -0.898100 0.311900
vn 0.177300 -0.551300 0.815200
vn 0.105000 -0.893800 0.436000
vn 0.122100 0.608000 0.784500
vn 0.432000 -0.682100 0.590000
vn 0.322100 -0.900300 0.292900
vn 0.254500 0.642900 0.722500
vn 0.158700 -0.974500 0.158600
vn 0.850800 -0.482700 0.207600
vn 0.781900 0.610700 0.125000
vn 0.208800 -0.484900 0.849300
vn 0.639700 0.431500 0.636000
vn 0.724900 0.640900 0.252500
vn 0.479800 0.736300 0.477100
vn -0.173700 -0.547700 0.818500
vn -0.436300 -0.678800 0.590700
vn -0.477700 -0.738600 0.475700
vn -0.103400 -0.893600 0.436800
vn -0.323500 -0.900400 0.291000
vn -0.311900 -0.898100 0.310100
vn -0.815200 -0.551300 0.177300
vn -0.436000 -0.893800 0.105000
vn -0.784500 0.608000 0.122100
vn -0.590000 -0.682100 0.432000
vn -0.292900 -0.900300 0.322100
vn -0.722400 0.642900 0.254500
vn -0.158600 -0.974500 0.158700
vn -0.207600 -0.482700 0.850800
vn -0.125000 0.610700 0.781900
vn -0.849300 -0.484900 0.208800
vn -0.636000 0.431500 0.639700
vn -0.252500 0.640900 0.724900
vn -0.477100 0.736300 0.479800
vn -0.177300 -0.551300 -0.815200
vn -0.105000 -0.893800 -0.436000
vn -0.122100 0.608000 -0.784500
vn -0.432000 -0.682100 -0.590000
vn -0.322100 -0.900300 -0.292900
vn -0.254500 0.642900 -0.722400
vn -0.158700 -0.974500 -0.158600
vn -0.850800 -0.482700 -0.207600
vn -0.781900 0.610700 -0.125000
vn -0.208800 -0.484900 -0.849300
vn -0.639700 0.431500 -0.636000
vn -0.724900 0.640900 -0.252500
vn -0.818500 -0.547700 -0.173700
vn -0.590700 -0.678800 -0.436300
vn -0.475700 -0.738600 -0.477700
vn -0.436800 -0.893600 -0.103400
vn -0.291000 -0.900400 -0.323500
vn -0.310100 -0.898100 -0.311900
vn -0.479800 0.736300 -0.477100
vn 0.111000 0.594800 -0.796200
vn 0.192300 -0.147100 -0.970200
vn 0.159300 0.435300 -0.886100
vn 0.370000 0.643800 -0.669800
vn 0.460600 -0.229700 -0.857400
vn 0.438900 0.056800 -0.896700
vn 0.158700 0.974500 -0.158600
vn 0.451900 0.879400 -0.150000
vn 0.884400 0.439200 -0.157900
vn 0.151100 0.879400 -0.451500
vn 0.451200 0.769900 -0.451300
vn 0.894900 0.064200 -0.441600
vn 0.795600 0.595200 -0.113200
vn 0.671200 0.642900 -0.368900
vn 0.538200 0.649700 -0.536800
vn 0.970700 -0.147100 -0.189900
vn 0.855600 -0.231800 -0.462900
vn 0.683500 -0.251600 -0.685200
vn 0.655200 -0.370700 -0.658300
vn 0.113200 0.595200 0.795600
vn 0.368900 0.642900 0.671200
vn 0.536800 0.649700 0.538200
vn 0.189900 -0.147100 0.970700
vn 0.462900 -0.231800 0.855600
vn 0.685200 -0.251600 0.683500
vn 0.796200 0.594800 0.111000
vn 0.970200 -0.147200 0.192300
vn 0.886100 0.435300 0.159300
vn 0.669800 0.643800 0.370000
vn 0.857400 -0.229700 0.460600
vn 0.896700 0.056800 0.438900
vn 0.158600 0.974500 0.158700
vn 0.150000 0.879400 0.451900
vn 0.157900 0.439200 0.884400
vn 0.451500 0.879400 0.151100
vn 0.451300 0.769900 0.451200
vn 0.441600 0.064200 0.894900
vn 0.658300 -0.370600 0.655200
vn -0.795600 0.595200 0.113200
vn -0.671200 0.642900 0.368900
vn -0.538200 0.649700 0.536800
vn -0.970700 -0.147100 0.189900
vn -0.855600 -0.231800 0.462900
vn -0.683500 -0.251600 0.685200
vn -0.111000 0.594800 0.796200
vn -0.192300 -0.147200 0.970200
vn -0.159300 0.435300 0.886100
vn -0.370000 0.643800 0.669800
vn -0.460600 -0.229700 0.857400
vn -0.438900 0.056800 0.896700
vn -0.158700 0.974500 0.158600
vn -0.451900 0.879400 0.150000
vn -0.884400 0.439200 0.157900
vn -0.151100 0.879400 0.451500
vn -0.451200 0.769900 0.451300
vn -0.894900 0.064200 0.441600
vn -0.655200 -0.370700 0.658300
vn -0.796200 0.594800 -0.111000
vn -0.970200 -0.147100 -0.192300
vn -0.886100 0.435300 -0.159300
vn -0.669800 0.643800 -0.370000
vn -0.857400 -0.229700 -0.460600
vn -0.896700 0.056800 -0.438900
vn -0.158600 0.974500 -0.158700
vn -0.150000 0.879400 -0.451900
vn -0.157900 0.439200 -0.884400
vn -0.451500 0.879400 -0.151100
vn -0.451300 0.769900 -0.451200
vn -0.441600 0.064200 -0.894900
vn -0.113200 0.595200 -0.795600
vn -0.368900 0.642900 -0.671200
vn -0.536800 0.649700 -0.538200
vn -0.189900 -0.147100 -0.970700
vn -0.462900 -0.231800 -0.855600
vn -0.685200 -0.251600 -0.683500
vn -0.658300 -0.370600 -0.655200
vn 0.882000 -0.471200 0.000000
vn 0.494300 -0.869300 0.000000
vn 0.864400 0.502800 -0.000000
vn 0.655800 -0.754900 -0.000000
vn 0.151400 -0.988500 0.000000
vn 0.000000 -0.988500 -0.151400
vn -0.000000 -0.754900 -0.655800
vn -0.000000 0.502800 -0.864400
vn 0.000000 -0.869300 -0.494300
vn 0.000000 -0.471200 -0.882000
vn 0.137800 0.002900 -0.990500
vn 0.464200 0.003400 -0.885700
vn 0.707600 0.003800 -0.706600
vn 0.886300 0.003400 -0.463100
vn 0.990200 0.002900 -0.139300
vn -0.000000 -0.471200 0.882000
vn -0.000000 -0.869300 0.494300
vn 0.000000 0.502800 0.864400
vn 0.000000 -0.754900 0.655800
vn -0.000000 -0.988500 0.151400
vn 0.990500 0.002900 0.137700
vn 0.885700 0.003400 0.464200
vn 0.706600 0.003800 0.707600
vn 0.463100 0.003400 0.886300
vn 0.139300 0.002900 0.990300
vn -0.882000 -0.471200 -0.000000
vn -0.494300 -0.869300 -0.000000
vn -0.864400 0.502800 0.000000
vn -0.655800 -0.754900 0.000000
vn -0.151400 -0.988500 -0.000000
vn -0.137700 0.002900 0.990500
vn -0.464200 0.003400 0.885700
vn -0.707600 0.003800 0.706600
vn -0.886300 0.003400 0.463100
vn -0.990200 0.002900 0.139300
vn -0.990500 0.002900 -0.137800
vn -0.885700 0.003400 -0.464200
vn -0.706600 0.003800 -0.707600
vn -0.463100 0.003400 -0.886300
vn -0.139300 0.002900 -0.990200
vn 0.151400 0.988500 -0.000000
vn 0.449200 0.893400 0.000000
vn 0.843600 0.537000 0.000000
vn 0.998000 -0.063900 0.000000
vn 0.832400 0.554100 -0.000000
vn -0.000000 0.554100 -0.832400
vn 0.000000 -0.063900 -0.998000
vn 0.000000 0.537000 -0.843600
vn 0.000000 0.893400 -0.449200
vn -0.000000 0.988500 -0.151400
vn 0.000000 0.988500 0.151400
vn -0.000000 0.893400 0.449200
vn -0.000000 0.537000 0.843600
vn -0.000000 -0.063900 0.998000
vn 0.000000 0.554100 0.832400
vn -0.151400 0.988500 0.000000
vn -0.449200 0.893400 -0.000000
vn -0.843600 0.537000 -0.000000
vn -0.998000 -0.063900 -0.000000
vn -0.832400 0.554100 0.000000
vn 0.000000 -1.000000 0.000000
usemtl material
s off
f 109//1 3//1 82//1 192//1
f 29//2 136//2 164//2 55//2
f 56//3 163//3 190//3 84//3
f 110//4 191//4 165//4 138//4
f 1//5 111//5 137//5 28//5
f 1//6 4//6 7//6 6//6
f 4//7 5//7 8//7 7//7
f 5//8 17//8 18//8 8//8
f 6//9 7//9 10//9 9//9
f 7//10 8//10 11//10 10//10
f 8//11 18//11 19//11 11//11
f 2//12 12//12 15//12 14//12
f 12//13 13//13 16//13 15//13
f 13//14 25//14 26//14 16//14
f 14//15 15//15 18//15 17//15
f 15//16 16//16 19//16 18//16
f 16//17 26//17 27//17 19//17
f 3//18 20//18 23//18 22//18
f 20//19 21//19 24//19 23//19
f 21//20 9//20 10//20 24//20
f 22//21 23//21 26//21 25//21
f 23//22 24//22 27//22 26//22
f 24//23 10//23 11//23 27//23
f 11//24 19//24 27//24
f 28//25 31//25 34//25 33//25
f 31//26 32//26 35//26 34//26
f 32//27 44//27 45//27 35//27
f 33//28 34//28 37//28 36//28
f 34//29 35//29 38//29 37//29
f 35//30 45//30 46//30 38//30
f 29//31 39//31 42//31 41//31
f 39//32 40//32 43//32 42//32
f 40//33 52//33 53//33 43//33
f 41//34 42//34 45//34 44//34
f 42//35 43//35 46//35 45//35
f 43//36 53//36 54//36 46//36
f 30//37 47//37 50//37 49//37
f 47//38 48//38 51//38 50//38
f 48//39 36//39 37//39 51//39
f 49//40 50//40 53//40 52//40
f 50//41 51//41 54//41 53//41
f 51//42 37//42 38//42 54//42
f 38//43 46//43 54//43
f 55//44 58//44 61//44 60//44
f 58//45 59//45 62//45 61//45
f 59//46 71//46 72//46 62//46
f 60//47 61//47 64//47 63//47
f 61//48 62//48 65//48 64//48
f 62//49 72//49 73//49 65//49
f 56//50 66//50 69//50 68//50
f 66//51 67//51 70//51 69//51
f 67//52 79//52 80//52 70//52
f 68//53 69//53 72//53 71//53
f 69//54 70//54 73//54 72//54
f 70//55 80//55 81//55 73//55
f 57//56 74//56 77//56 76//56
f 74//57 75//57 78//57 77//57
f 75//58 63//58 64//58 78//58
f 76//59 77//59 80//59 79//59
f 77//60 78//60 81//60 80//60
f 78//61 64//61 65//61 81//61
f 65//62 73//62 81//62
f 82//63 85//63 88//63 87//63
f 85//64 86//64 89//64 88//64
f 86//65 98//65 99//65 89//65
f 87//66 88//66 91//66 90//66
f 88//67 89//67 92//67 91//67
f 89//68 99//68 100//68 92//68
f 83//69 93//69 96//69 95//69
f 93//70 94//70 97//70 96//70
f 94//71 106//71 107//71 97//71
f 95//72 96//72 99//72 98//72
f 96//73 97//73 100//73 99//73
f 97//74 107//74 108//74 100//74
f 84//75 101//75 104//75 103//75
f 101//76 102//76 105//76 104//76
f 102//77 90//77 91//77 105//77
f 103//78 104//78 107//78 106//78
f 104//79 105//79 108//79 107//79
f 105//80 91//80 92//80 108//80
f 92//81 100//81 108//81
f 109//82 112//82 115//82 114//82
f 112//83 113//83 116//83 115//83
f 113//84 125//84 126//84 116//84
f 114//85 115//85 118//85 117//85
f 115//86 116//86 119//86 118//86
f 116//87 126//87 127//87 119//87
f 110//88 120//88 123//88 122//88
f 120//89 121//89 124//89 123//89
f 121//90 133//90 134//90 124//90
f 122//91 123//91 126//91 125//91
f 123//92 124//92 127//92 126//92
f 124//93 134//93 135//93 127//93
f 111//94 128//94 131//94 130//94
f 128//95 129//95 132//95 131//95
f 129//96 117//96 118//96 132//96
f 130//97 131//97 134//97 133//97
f 131//98 132//98 135//98 134//98
f 132//99 118//99 119//99 135//99
f 119//100 127//100 135//100
f 136//101 139//101 142//101 141//101
f 139//102 140//102 143//102 142//102
f 140//103 152//103 153//103 143//103
f 141//104 142//104 145//104 144//104
f 142//105 143//105 146//105 145//105
f 143//106 153//106 154//106 146//106
f 137//107 147//107 150//107 149//107
f 147//108 148//108 151//108 150//108
f 148//109 160//109 161//109 151//109
f 149//110 150//110 153//110 152//110
f 150//111 151//111 154//111 153//111
f 151//112 161//112 162//112 154//112
f 138//113 155//113 158//113 157//113
f 155//114 156//114 159//114 158//114
f 156//115 144//115 145//115 159//115
f 157//116 158//116 161//116 160//116
f 158//117 159//117 162//117 161//117
f 159//118 145//118 146//118 162//118
f 146//119 154//119 162//119
f 163//120 166//120 169//120 168//120
f 166//121 167//121 170//121 169//121
f 167//122 179//122 180//122 170//122
f 168//123 169//123 172//123 171//123
f 169//124 170//124 173//124 172//124
f 170//125 180//125 181//125 173//125
f 164//126 174//126 177//126 176//126
f 174//127 175//127 178//127 177//127
f 175//128 187//128 188//128 178//128
f 176//129 177//129 180//129 179//129
f 177//130 178//130 181//130 180//130
f 178//131 188//131 189//131 181//131
f 165//132 182//132 185//132 184//132
f 182//133 183//133 186//133 185//133
f 183//134 171//134 172//134 186//134
f 184//135 185//135 188//135 187//135
f 185//136 186//136 189//136 188//136
f 186//137 172//137 173//137 189//137
f 173//138 181//138 189//138
f 190//139 193//139 196//139 195//139
f 193//140 194//140 197//140 196//140
f 194//141 206//141 207//141 197//141
f 195//142 196//142 199//142 198//142
f 196//143 197//143 200//143 199//143
f 197//144 207//144 208//144 200//144
f 191//145 201//145 204//145 203//145
f 201//146 202//146 205//146 204//146
f 202//147 214//147 215//147 205//147
f 203//148 204//148 207//148 206//148
f 204//149 205//149 208//149 207//149
f 205//150 215//150 216//150 208//150
f 192//151 209//151 212//151 211//151
f 209//152 210//152 213//152 212//152
f 210//153 198//153 199//153 213//153
f 211//154 212//154 215//154 214//154
f 212//155 213//155 216//155 215//155
f 213//156 199//156 200//156 216//156
f 200//157 208//157 216//157
f 1//158 28//158 33//158 4//158
f 4//159 33//159 36//159 5//159
f 5//160 36//160 48//160 17//160
f 17//161 48//161 47//161 14//161
f 14//162 47//162 30//162 2//162
f 2//163 83//163 95//163 12//163
f 12//164 95//164 98//164 13//164
f 13//165 98//165 86//165 25//165
f 25//166 86//166 85//166 22//166
f 22//167 85//167 82//167 3//167
f 3//168 109//168 114//168 20//168
f 20//169 114//169 117//169 21//169
f 21//170 117//170 129//170 9//170
f 9//171 129//171 128//171 6//171
f 6//172 128//172 111//172 1//172
f 29//173 55//173 60//173 39//173
f 39//174 60//174 63//174 40//174
f 40//175 63//175 75//175 52//175
f 52//176 75//176 74//176 49//176
f 49//177 74//177 57//177 30//177
f 28//178 137//178 149//178 31//178
f 31//179 149//179 152//179 32//179
f 32//180 152//180 140//180 44//180
f 44//181 140//181 139//181 41//181
f 41//182 139//182 136//182 29//182
f 56//183 84//183 103//183 66//183
f 66//184 103//184 106//184 67//184
f 67//185 106//185 94//185 79//185
f 79//186 94//186 93//186 76//186
f 76//187 93//187 83//187 57//187
f 55//188 164//188 176//188 58//188
f 58//189 176//189 179//189 59//189
f 59//190 179//190 167//190 71//190
f 71//191 167//191 166//191 68//191
f 68//192 166//192 163//192 56//192
f 84//193 190//193 195//193 101//193
f 101//194 195//194 198//194 102//194
f 102//195 198//195 210//195 90//195
f 90//196 210//196 209//196 87//196
f 87//197 209//197 192//197 82//197
f 110//198 138//198 157//198 120//198
f 120//199 157//199 160//199 121//199
f 121//200 160//200 148//200 133//200
f 133//201 148//201 147//201 130//201
f 130//202 147//202 137//202 111//202
f 109//203 192//203 211//203 112//203
f 112//204 211//204 214//204 113//204
f 113//205 214//205 202//205 125//205
f 125//206 202//206 201//206 122//206
f 122//207 201//207 191//207 110//207
f 138//208 165//208 184//208 155//208
f 155//209 184//209 187//209 156//209
f 156//210 187//210 175//210 144//210
f 144//211 175//211 174//211 141//211
f 141//212 174//212 164//212 136//212
f 165//213 191//213 203//213 182//213
f 182//214 203//214 206//214 183//214
f 183//215 206//215 194//215 171//215
f 171//216 194//216 193//216 168//216
f 168//217 193//217 190//217 163//217
f 2//218 30//218 57//218 83//218
