# Blender v2.75 (sub 0) OBJ File: 'ehoumaki.blend'
# www.blender.org
mtllib ehoumaki.mtl
o ehoumaki_body
v -0.000000 0.043554 -0.136297
v -0.000000 0.043554 0.177552
v 0.014896 0.040927 -0.136297
v 0.014896 0.040927 0.177552
v 0.027996 0.033364 -0.136297
v 0.027996 0.033364 0.177552
v 0.037719 0.021777 -0.136297
v 0.037719 0.021777 0.177552
v 0.042892 0.007563 -0.136297
v 0.042892 0.007563 0.177552
v 0.042892 -0.007563 -0.136297
v 0.042892 -0.007563 0.177552
v 0.037719 -0.021777 -0.136297
v 0.037719 -0.021777 0.177552
v 0.027996 -0.033364 -0.136297
v 0.027996 -0.033364 0.177552
v 0.014896 -0.040927 -0.136297
v 0.014896 -0.040927 0.177552
v 0.000000 -0.043554 -0.136297
v 0.000000 -0.043554 0.177552
v -0.014896 -0.040927 -0.136297
v -0.014896 -0.040927 0.177552
v -0.027996 -0.033364 -0.136297
v -0.027996 -0.033364 0.177552
v -0.037719 -0.021777 -0.136297
v -0.037719 -0.021777 0.177552
v -0.042892 -0.007563 -0.136297
v -0.042892 -0.007563 0.177552
v -0.042892 0.007563 -0.136297
v -0.042892 0.007563 0.177552
v -0.037719 0.021777 -0.136297
v -0.037719 0.021777 0.177552
v -0.027996 0.033364 -0.136297
v -0.027996 0.033364 0.177552
v -0.014896 0.040927 -0.136297
v -0.014896 0.040927 0.177552
v -0.000000 0.039709 0.177552
v 0.013581 0.037315 0.177552
v 0.025525 0.030419 0.177552
v 0.034389 0.019855 0.177552
v 0.039106 0.006895 0.177552
v 0.039106 -0.006895 0.177552
v 0.034389 -0.019855 0.177552
v 0.025525 -0.030419 0.177552
v 0.013581 -0.037315 0.177552
v 0.000000 -0.039709 0.177552
v -0.013581 -0.037315 0.177552
v -0.025525 -0.030419 0.177552
v -0.034389 -0.019855 0.177552
v -0.039106 -0.006895 0.177552
v -0.039106 0.006895 0.177552
v -0.034389 0.019855 0.177552
v -0.025525 0.030419 0.177552
v -0.013581 0.037315 0.177552
v -0.000000 0.019117 0.177552
v 0.006538 0.017964 0.177552
v 0.012288 0.014644 0.177552
v 0.016556 0.009558 0.177552
v 0.018826 0.003320 0.177552
v 0.018826 -0.003320 0.177552
v 0.016556 -0.009558 0.177552
v 0.012288 -0.014644 0.177552
v 0.006538 -0.017964 0.177552
v 0.000000 -0.019117 0.177552
v -0.006538 -0.017964 0.177552
v -0.012288 -0.014644 0.177552
v -0.016556 -0.009558 0.177552
v -0.018826 -0.003320 0.177552
v -0.018826 0.003320 0.177552
v -0.016556 0.009558 0.177552
v -0.012288 0.014644 0.177552
v -0.006538 0.017964 0.177552
v 0.002900 0.011700 0.177559
v 0.000028 0.012206 0.177559
v 0.009411 0.006530 0.178460
v 0.011285 0.004296 0.178460
v 0.010313 0.001554 0.178015
v 0.008301 -0.001364 0.177559
v 0.007304 -0.004105 0.177559
v 0.005429 -0.006339 0.177559
v 0.002906 -0.010594 0.177560
v 0.000034 -0.011101 0.177560
v -0.002841 -0.007797 0.177559
v -0.005366 -0.006339 0.177559
v -0.007241 -0.004105 0.177559
v -0.011479 -0.001367 0.176826
v -0.011479 0.001549 0.176826
v -0.007241 0.004293 0.177559
v -0.006024 0.008854 0.177411
v -0.003499 0.010312 0.177411
v -0.000000 0.039154 -0.136297
v 0.013392 0.036793 -0.136297
v 0.025168 0.029994 -0.136297
v 0.033909 0.019577 -0.136297
v 0.038559 0.006799 -0.136297
v 0.038559 -0.006799 -0.136297
v 0.033909 -0.019577 -0.136297
v 0.025168 -0.029994 -0.136297
v 0.013392 -0.036793 -0.136297
v 0.000000 -0.039154 -0.136297
v -0.013392 -0.036793 -0.136297
v -0.025168 -0.029994 -0.136297
v -0.033909 -0.019577 -0.136297
v -0.038559 -0.006799 -0.136297
v -0.038559 0.006799 -0.136297
v -0.033909 0.019577 -0.136297
v -0.025168 0.029994 -0.136297
v -0.013392 0.036793 -0.136297
v -0.000000 0.020712 -0.136297
v 0.007084 0.019463 -0.136297
v 0.013313 0.015866 -0.136297
v 0.017937 0.010356 -0.136297
v 0.020397 0.003597 -0.136297
v 0.020397 -0.003597 -0.136297
v 0.017937 -0.010356 -0.136297
v 0.013313 -0.015866 -0.136297
v 0.007084 -0.019463 -0.136297
v 0.000000 -0.020712 -0.136297
v -0.007084 -0.019463 -0.136297
v -0.013313 -0.015866 -0.136297
v -0.017937 -0.010356 -0.136297
v -0.020397 -0.003597 -0.136297
v -0.020397 0.003597 -0.136297
v -0.017937 0.010356 -0.136297
v -0.013313 0.015866 -0.136297
v -0.007084 0.019463 -0.136297
v -0.000258 0.013424 -0.136355
v 0.003925 0.008475 -0.136108
v 0.006642 0.006906 -0.136108
v 0.008659 0.004503 -0.136108
v 0.011440 0.001557 -0.135721
v 0.011440 -0.001580 -0.135721
v 0.007568 -0.004531 -0.136354
v 0.005554 -0.009153 -0.136354
v 0.002837 -0.010721 -0.136354
v -0.000254 -0.009047 -0.136354
v -0.006113 -0.010197 -0.136981
v -0.008830 -0.008629 -0.136981
v -0.010847 -0.006225 -0.136981
v -0.011916 -0.001585 -0.136980
v -0.011916 0.001552 -0.136980
v -0.011947 0.004499 -0.137230
v -0.009930 0.006902 -0.137230
v -0.003348 0.012879 -0.136355
vn 0.000000 -0.000000 1.000000
vn 0.000000 0.000000 -1.000000
vn 0.173600 0.984800 -0.000000
vn 0.500000 0.866000 -0.000000
vn 0.766000 0.642800 -0.000000
vn 0.939700 0.342000 -0.000000
vn 1.000000 -0.000000 0.000000
vn 0.939700 -0.342000 0.000000
vn 0.766000 -0.642800 0.000000
vn 0.500000 -0.866000 0.000000
vn 0.173600 -0.984800 0.000000
vn -0.173600 -0.984800 0.000000
vn -0.500000 -0.866000 0.000000
vn -0.766000 -0.642800 0.000000
vn -0.939700 -0.342000 0.000000
vn -1.000000 -0.000000 0.000000
vn -0.939700 0.342000 -0.000000
vn -0.766000 0.642800 -0.000000
vn -0.173600 0.984800 -0.000000
vn -0.500000 0.866000 -0.000000
vn -0.037000 -0.008700 0.999300
vn 0.050800 0.006500 -0.998700
vn 0.024100 -0.052600 0.998300
vn 0.005200 0.085100 0.996400
vn 0.000600 -0.000200 1.000000
vn 0.098300 0.000000 0.995200
vn 0.000500 -0.000400 1.000000
vn 0.006600 -0.086100 0.996300
vn 0.000600 -0.000600 1.000000
vn -0.064600 -0.054200 -0.996400
vn -0.064100 0.000000 -0.997900
vn -0.078000 -0.024100 -0.996700
vn 0.048000 -0.037000 -0.998200
vn -0.013300 -0.011200 -0.999800
vn -0.040100 -0.069400 -0.996800
vn -0.020000 -0.050600 -0.998500
vn 0.000200 -0.001000 1.000000
vn -0.022400 0.073500 0.997000
vn -0.000400 -0.000700 1.000000
vn 0.093000 0.078100 0.992600
vn -0.000300 -0.000600 1.000000
vn 0.115300 -0.032600 0.992800
vn -0.000500 -0.000400 1.000000
vn -0.000300 0.065200 -0.997900
vn -0.080300 0.000000 -0.996800
vn 0.004300 -0.002900 -1.000000
vn -0.109900 0.002000 -0.993900
vn 0.002900 -0.005100 -1.000000
vn -0.085000 0.071300 -0.993800
vn -0.000200 -0.005700 -1.000000
vn 0.015300 0.070600 -0.997400
vn 0.014000 0.007500 0.999900
vn 0.008700 -0.015100 0.999800
vn -0.011200 -0.011700 0.999900
vn 0.000200 0.000900 1.000000
vn 0.016300 -0.010200 -0.999800
vn -0.008500 -0.014800 -0.999900
vn -0.001400 0.008100 -1.000000
usemtl rice
s off
f 52//1 51//1 69//1 70//1
f 45//1 44//1 62//1 63//1
f 38//1 37//1 55//1 56//1
f 53//1 52//1 70//1 71//1
f 46//1 45//1 63//1 64//1
f 39//1 38//1 56//1 57//1
f 54//1 53//1 71//1 72//1
f 47//1 46//1 64//1 65//1
f 40//1 39//1 57//1 58//1
f 37//1 54//1 72//1 55//1
f 48//1 47//1 65//1 66//1
f 41//1 40//1 58//1 59//1
f 49//1 48//1 66//1 67//1
f 42//1 41//1 59//1 60//1
f 50//1 49//1 67//1 68//1
f 43//1 42//1 60//1 61//1
f 51//1 50//1 68//1 69//1
f 44//1 43//1 61//1 62//1
f 108//2 91//2 109//2 126//2
f 101//2 102//2 120//2 119//2
f 94//2 95//2 113//2 112//2
f 102//2 103//2 121//2 120//2
f 95//2 96//2 114//2 113//2
f 103//2 104//2 122//2 121//2
f 96//2 97//2 115//2 114//2
f 104//2 105//2 123//2 122//2
f 97//2 98//2 116//2 115//2
f 105//2 106//2 124//2 123//2
f 98//2 99//2 117//2 116//2
f 91//2 92//2 110//2 109//2
f 106//2 107//2 125//2 124//2
f 99//2 100//2 118//2 117//2
f 92//2 93//2 111//2 110//2
f 107//2 108//2 126//2 125//2
f 100//2 101//2 119//2 118//2
f 93//2 94//2 112//2 111//2
usemtl nori
f 1//3 2//3 4//3 3//3
f 3//4 4//4 6//4 5//4
f 5//5 6//5 8//5 7//5
f 7//6 8//6 10//6 9//6
f 9//7 10//7 12//7 11//7
f 11//8 12//8 14//8 13//8
f 13//9 14//9 16//9 15//9
f 15//10 16//10 18//10 17//10
f 17//11 18//11 20//11 19//11
f 19//12 20//12 22//12 21//12
f 21//13 22//13 24//13 23//13
f 23//14 24//14 26//14 25//14
f 25//15 26//15 28//15 27//15
f 27//16 28//16 30//16 29//16
f 29//17 30//17 32//17 31//17
f 31//18 32//18 34//18 33//18
f 14//1 12//1 42//1 43//1
f 35//19 36//19 2//19 1//19
f 33//20 34//20 36//20 35//20
f 21//2 23//2 102//2 101//2
f 24//1 22//1 47//1 48//1
f 34//1 32//1 52//1 53//1
f 10//1 8//1 40//1 41//1
f 20//1 18//1 45//1 46//1
f 30//1 28//1 50//1 51//1
f 6//1 4//1 38//1 39//1
f 16//1 14//1 43//1 44//1
f 26//1 24//1 48//1 49//1
f 36//1 34//1 53//1 54//1
f 12//1 10//1 41//1 42//1
f 22//1 20//1 46//1 47//1
f 32//1 30//1 51//1 52//1
f 8//1 6//1 39//1 40//1
f 18//1 16//1 44//1 45//1
f 4//1 2//1 37//1 38//1
f 28//1 26//1 49//1 50//1
f 2//1 36//1 54//1 37//1
f 31//2 33//2 107//2 106//2
f 7//2 9//2 95//2 94//2
f 17//2 19//2 100//2 99//2
f 27//2 29//2 105//2 104//2
f 3//2 5//2 93//2 92//2
f 13//2 15//2 98//2 97//2
f 23//2 25//2 103//2 102//2
f 33//2 35//2 108//2 107//2
f 9//2 11//2 96//2 95//2
f 19//2 21//2 101//2 100//2
f 29//2 31//2 106//2 105//2
f 5//2 7//2 94//2 93//2
f 15//2 17//2 99//2 98//2
f 1//2 3//2 92//2 91//2
f 25//2 27//2 104//2 103//2
f 35//2 1//2 91//2 108//2
f 11//2 13//2 97//2 96//2
usemtl gu1
f 73//21 74//21 90//21 89//21 88//21 87//21 86//21 85//21 84//21 83//21 82//21 81//21 80//21 79//21 78//21 77//21 76//21 75//21
f 127//22 128//22 129//22 130//22 131//22 132//22 133//22 134//22 135//22 136//22 137//22 138//22 139//22 140//22 141//22 142//22 143//22 144//22
usemtl gu2
f 60//23 59//23 77//23 78//23
f 68//24 67//24 85//24 86//24
f 61//25 60//25 78//25 79//25
f 69//26 68//26 86//26 87//26
f 62//27 61//27 79//27 80//27
f 70//28 69//28 87//28 88//28
f 63//29 62//29 80//29 81//29
f 120//30 121//30 139//30 138//30
f 113//31 114//31 132//31 131//31
f 121//32 122//32 140//32 139//32
f 118//33 119//33 137//33 136//33
f 111//34 112//34 130//34 129//34
f 119//35 120//35 138//35 137//35
f 112//36 113//36 131//36 130//36
usemtl gu3
f 64//37 63//37 81//37 82//37
f 57//38 56//38 73//38 75//38
f 65//39 64//39 82//39 83//39
f 58//40 57//40 75//40 76//40
f 66//41 65//41 83//41 84//41
f 59//42 58//42 76//42 77//42
f 67//43 66//43 84//43 85//43
f 114//44 115//44 133//44 132//44
f 122//45 123//45 141//45 140//45
f 115//46 116//46 134//46 133//46
f 123//47 124//47 142//47 141//47
f 116//48 117//48 135//48 134//48
f 124//49 125//49 143//49 142//49
f 117//50 118//50 136//50 135//50
f 125//51 126//51 144//51 143//51
usemtl gu4
f 71//52 70//52 88//52 89//52
f 72//53 71//53 89//53 90//53
f 55//54 72//54 90//54 74//54
f 56//55 55//55 74//55 73//55
f 109//56 110//56 128//56 127//56
f 110//57 111//57 129//57 128//57
f 126//58 109//58 127//58 144//58
