# Blender v2.76 (sub 0) OBJ File: 'kurimanju.blend'
# www.blender.org
mtllib kurimanju.mtl
o çƒ
v -0.864276 0.733251 -0.000000
v -1.232023 0.561113 -0.000000
v -1.468655 0.303672 -0.000000
v -1.551817 0.000176 -0.000000
v -1.468706 -0.299463 -0.000000
v -1.232255 -0.542826 -0.000000
v -0.864313 -0.688109 -0.000000
v -0.730206 0.733585 -0.270598
v -0.999887 0.561209 -0.500000
v -1.171359 0.303890 -0.653281
v -1.230300 0.001866 -0.707107
v -1.171391 -0.294862 -0.653281
v -0.999959 -0.535771 -0.500000
v -0.730206 -0.681851 -0.270598
v 0.000000 0.736607 -0.382683
v 0.000000 0.566077 -0.707107
v 0.000000 0.312430 -0.923879
v 0.000000 0.017050 -1.000000
v 0.000000 -0.271472 -0.923879
v 0.000000 -0.507082 -0.707107
v 0.000000 -0.656668 -0.382683
v 0.000000 0.796633 0.000000
v 0.730206 0.733585 -0.270598
v 0.999887 0.561209 -0.500000
v 1.171359 0.303890 -0.653281
v 1.230300 0.001866 -0.707107
v 1.171391 -0.294862 -0.653281
v 0.999959 -0.535771 -0.500000
v 0.730206 -0.681851 -0.270598
v 0.864276 0.733251 -0.000000
v 1.232023 0.561113 -0.000000
v 1.468655 0.303672 -0.000000
v 1.551817 0.000176 -0.000000
v 1.468706 -0.299463 -0.000000
v 1.232255 -0.542826 -0.000000
v 0.864313 -0.688109 -0.000000
v 0.000000 -0.706408 0.000000
v 0.730206 0.733585 0.270598
v 0.999887 0.561209 0.500000
v 1.171359 0.303890 0.653281
v 1.230300 0.001866 0.707107
v 1.171391 -0.294862 0.653281
v 0.999959 -0.535771 0.500000
v 0.730206 -0.681851 0.270598
v 0.000000 0.736607 0.382683
v 0.000000 0.566077 0.707107
v 0.000000 0.312430 0.923879
v 0.000000 0.017050 1.000000
v 0.000000 -0.271472 0.923879
v 0.000000 -0.507082 0.707107
v 0.000000 -0.656668 0.382683
v -0.730206 0.733585 0.270598
v -0.999887 0.561209 0.500000
v -1.171359 0.303890 0.653281
v -1.230300 0.001866 0.707107
v -1.171391 -0.294862 0.653281
v -0.999959 -0.535771 0.500000
v -0.730206 -0.681851 0.270598
vn -1.000000 -0.002200 0.000000
vn -0.886900 0.462000 0.000000
vn -0.567200 0.453900 -0.687200
vn -0.641700 -0.002800 -0.766900
vn -0.240000 -0.970800 0.000000
vn -0.583900 -0.811800 0.000000
vn -0.356100 -0.800300 -0.482400
vn -0.130400 -0.962100 -0.239400
vn -0.879200 -0.476500 0.000000
vn -0.557400 -0.469300 -0.684800
vn 0.000000 -0.771700 -0.635900
vn 0.000000 -0.950900 -0.309400
vn 0.000000 -0.000200 -1.000000
vn 0.000000 -0.439200 -0.898400
vn 0.000000 0.428400 -0.903600
vn 0.557400 -0.469300 -0.684800
vn 0.356100 -0.800300 -0.482400
vn 0.567200 0.453900 -0.687200
vn 0.641700 -0.002800 -0.766900
vn 0.130400 -0.962100 -0.239400
vn 0.879200 -0.476500 0.000000
vn 0.583900 -0.811800 0.000000
vn 0.886900 0.462000 0.000000
vn 1.000000 -0.002200 0.000000
vn 0.240000 -0.970800 0.000000
vn 0.356100 -0.800300 0.482400
vn 0.130400 -0.962100 0.239400
vn 0.641700 -0.002800 0.766900
vn 0.557400 -0.469300 0.684800
vn 0.567200 0.453900 0.687200
vn 0.000000 -0.000200 1.000000
vn 0.000000 -0.439200 0.898400
vn 0.000000 -0.771700 0.635900
vn 0.000000 0.428400 0.903600
vn 0.000000 -0.950900 0.309400
vn -0.557400 -0.469300 0.684800
vn -0.356100 -0.800300 0.482400
vn -0.567200 0.453900 0.687200
vn -0.641700 -0.002800 0.766900
vn -0.130400 -0.962100 0.239400
vn 0.000000 -1.000000 0.000000
vn -0.619500 0.784900 0.000000
vn -0.297900 0.954600 0.000000
vn -0.180500 0.948100 -0.261600
vn -0.389200 0.774500 -0.498600
vn 0.000000 0.749300 -0.662200
vn 0.000000 0.938900 -0.344200
vn 0.180500 0.948100 -0.261600
vn 0.389200 0.774500 -0.498600
vn 0.297900 0.954600 0.000000
vn 0.619500 0.784900 0.000000
vn 0.389200 0.774500 0.498600
vn 0.180500 0.948100 0.261600
vn 0.000000 0.749300 0.662200
vn 0.000000 0.938900 0.344200
vn -0.180500 0.948100 0.261600
vn -0.389200 0.774500 0.498600
vn 0.000000 1.000000 0.000000
usemtl body
s 1
f 4//1 3//2 10//3 11//4
f 7//5 6//6 13//7 14//8
f 5//9 4//1 11//4 12//10
f 6//6 5//9 12//10 13//7
f 14//8 13//7 20//11 21//12
f 12//10 11//4 18//13 19//14
f 13//7 12//10 19//14 20//11
f 11//4 10//3 17//15 18//13
f 20//11 19//14 27//16 28//17
f 18//13 17//15 25//18 26//19
f 21//12 20//11 28//17 29//20
f 19//14 18//13 26//19 27//16
f 28//17 27//16 34//21 35//22
f 26//19 25//18 32//23 33//24
f 29//20 28//17 35//22 36//25
f 27//16 26//19 33//24 34//21
f 36//25 35//22 43//26 44//27
f 34//21 33//24 41//28 42//29
f 35//22 34//21 42//29 43//26
f 33//24 32//23 40//30 41//28
f 42//29 41//28 48//31 49//32
f 43//26 42//29 49//32 50//33
f 41//28 40//30 47//34 48//31
f 44//27 43//26 50//33 51//35
f 50//33 49//32 56//36 57//37
f 48//31 47//34 54//38 55//39
f 51//35 50//33 57//37 58//40
f 49//32 48//31 55//39 56//36
f 37//41 7//5 14//8
f 37//41 14//8 21//12
f 37//41 21//12 29//20
f 37//41 29//20 36//25
f 37//41 36//25 44//27
f 37//41 44//27 51//35
f 37//41 51//35 58//40
f 55//39 54//38 3//2 4//1
f 58//40 57//37 6//6 7//5
f 56//36 55//39 4//1 5//9
f 37//41 58//40 7//5
f 57//37 56//36 5//9 6//6
usemtl bodytop
f 2//42 1//43 8//44 9//45
f 3//2 2//42 9//45 10//3
f 10//3 9//45 16//46 17//15
f 9//45 8//44 15//47 16//46
f 16//46 15//47 23//48 24//49
f 17//15 16//46 24//49 25//18
f 24//49 23//48 30//50 31//51
f 25//18 24//49 31//51 32//23
f 32//23 31//51 39//52 40//30
f 31//51 30//50 38//53 39//52
f 40//30 39//52 46//54 47//34
f 39//52 38//53 45//55 46//54
f 46//54 45//55 52//56 53//57
f 47//34 46//54 53//57 54//38
f 1//43 22//58 8//44
f 8//44 22//58 15//47
f 15//47 22//58 23//48
f 23//48 22//58 30//50
f 30//50 22//58 38//53
f 38//53 22//58 45//55
f 45//55 22//58 52//56
f 53//57 52//56 1//43 2//42
f 54//38 53//57 2//42 3//2
f 52//56 22//58 1//43
