# Blender v2.76 (sub 0) OBJ File: 'option.blend'
# www.blender.org
mtllib option.mtl
o çƒ
v -0.500000 0.866025 0.000000
v -0.866025 0.500000 0.000000
v -1.000000 -0.000000 0.000000
v -0.866025 -0.500000 0.000000
v -0.500000 -0.866025 0.000000
v -0.353553 0.866025 -0.584292
v -0.612373 0.500000 -1.012024
v -0.707107 -0.000000 -1.168585
v -0.612372 -0.500000 -1.012024
v -0.353553 -0.866025 -0.584292
v -0.000000 0.866025 -0.826314
v -0.000000 0.500000 -1.431218
v -0.000000 -0.000000 -1.652628
v -0.000000 -0.500000 -1.431218
v -0.000000 -0.866025 -0.826314
v -0.000000 1.000000 0.000000
v 0.353553 0.866025 -0.584292
v 0.612372 0.500000 -1.012024
v 0.707106 -0.000000 -1.168585
v 0.612372 -0.500000 -1.012024
v 0.353553 -0.866025 -0.584292
v -0.000000 -1.000000 0.000000
v 0.500000 0.866025 0.000000
v 0.866025 0.500000 -0.000000
v 1.000000 -0.000000 -0.000000
v 0.866025 -0.500000 -0.000000
v 0.500000 -0.866025 0.000000
v 0.353553 0.866025 0.584292
v 0.612372 0.500000 1.012024
v 0.707106 -0.000000 1.168584
v 0.612372 -0.500000 1.012024
v 0.353553 -0.866025 0.584292
v -0.000000 0.866025 0.826314
v -0.000000 0.500000 1.431218
v -0.000000 -0.000000 1.652628
v -0.000000 -0.500000 1.431218
v -0.000000 -0.866025 0.826314
v -0.353553 0.866025 0.584292
v -0.612372 0.500000 1.012024
v -0.707107 -0.000000 1.168584
v -0.612372 -0.500000 1.012024
v -0.353553 -0.866025 0.584292
v -0.862997 1.494755 0.000000
v -1.494755 0.862997 0.000000
v -1.725995 -0.000000 0.000000
v -1.494755 -0.862998 0.000000
v -0.862997 -1.494755 0.000000
v -0.610231 1.494755 -1.008485
v -1.056952 0.862997 -1.746748
v -1.220463 -0.000000 -2.016971
v -1.056952 -0.862998 -1.746748
v -0.610231 -1.494755 -1.008485
v -0.000000 1.494755 -1.426213
v -0.000000 0.862997 -2.470275
v -0.000000 -0.000000 -2.852428
v -0.000000 -0.862998 -2.470275
v -0.000000 -1.494755 -1.426214
v -0.000000 1.725995 0.000000
v 0.610231 1.494755 -1.008485
v 1.056951 0.862997 -1.746748
v 1.220462 -0.000000 -2.016971
v 1.056951 -0.862998 -1.746748
v 0.610231 -1.494755 -1.008485
v -0.000000 -1.725995 0.000000
v 0.862997 1.494755 0.000000
v 1.494755 0.862997 -0.000000
v 1.725994 -0.000000 0.000000
v 1.494755 -0.862998 0.000000
v 0.862997 -1.494755 0.000000
v 0.610231 1.494755 1.008486
v 1.056951 0.862997 1.746748
v 1.220462 -0.000000 2.016971
v 1.056951 -0.862998 1.746748
v 0.610231 -1.494755 1.008486
v -0.000000 1.494755 1.426214
v -0.000000 0.862997 2.470275
v -0.000000 -0.000000 2.852427
v -0.000000 -0.862998 2.470275
v -0.000000 -1.494755 1.426214
v -0.610231 1.494755 1.008485
v -1.056951 0.862997 1.746748
v -1.220462 -0.000000 2.016971
v -1.056952 -0.862998 1.746748
v -0.610231 -1.494755 1.008486
v -1.138973 1.972759 0.000000
v -1.972759 1.138973 0.000000
v -2.277946 -0.000000 0.000000
v -1.972759 -1.138973 0.000000
v -1.138973 -1.972759 0.000000
v -0.805375 1.972759 -1.330986
v -1.394951 1.138973 -2.305336
v -1.610751 -0.000000 -2.661973
v -1.394951 -1.138973 -2.305336
v -0.805375 -1.972759 -1.330986
v -0.000000 1.972759 -1.882298
v -0.000000 1.138973 -3.260237
v -0.000000 -0.000000 -3.764598
v -0.000000 -1.138973 -3.260237
v -0.000000 -1.972759 -1.882298
v -0.000000 2.277946 0.000000
v 0.805375 1.972759 -1.330986
v 1.394951 1.138973 -2.305336
v 1.610751 -0.000000 -2.661973
v 1.394951 -1.138973 -2.305336
v 0.805375 -1.972759 -1.330986
v -0.000000 -2.277946 0.000000
v 1.138972 1.972759 0.000000
v 1.972759 1.138973 -0.000000
v 2.277945 -0.000000 0.000000
v 1.972758 -1.138973 0.000000
v 1.138972 -1.972759 0.000000
v 0.805375 1.972759 1.330986
v 1.394951 1.138973 2.305336
v 1.610750 -0.000000 2.661972
v 1.394951 -1.138973 2.305336
v 0.805375 -1.972759 1.330986
v -0.000000 1.972759 1.882299
v -0.000000 1.138973 3.260237
v -0.000000 -0.000000 3.764597
v -0.000000 -1.138973 3.260237
v -0.000000 -1.972759 1.882299
v -0.805375 1.972759 1.330986
v -1.394951 1.138973 2.305336
v -1.610751 -0.000000 2.661972
v -1.394951 -1.138973 2.305336
v -0.805375 -1.972759 1.330986
vn -0.875400 -0.483400 0.000000
vn -1.000000 0.000000 0.000000
vn -0.804100 0.000000 -0.594500
vn -0.688900 -0.546200 -0.476500
vn -0.875400 0.483400 0.000000
vn -0.529100 0.848600 0.000000
vn -0.412800 0.877000 -0.245800
vn -0.688900 0.546200 -0.476500
vn -0.529100 -0.848600 0.000000
vn -0.412800 -0.877000 -0.245800
vn 0.000000 -0.610700 -0.791800
vn 0.000000 -0.914100 -0.405400
vn 0.000000 0.610700 -0.791800
vn 0.000000 0.000000 -1.000000
vn 0.000000 0.914100 -0.405400
vn 0.688900 -0.546200 -0.476500
vn 0.412800 -0.877000 -0.245800
vn 0.688900 0.546200 -0.476500
vn 0.804100 0.000000 -0.594500
vn 0.412800 0.877000 -0.245800
vn 0.875400 -0.483400 0.000000
vn 0.529100 -0.848600 0.000000
vn 0.875400 0.483400 0.000000
vn 1.000000 0.000000 0.000000
vn 0.529100 0.848600 0.000000
vn 0.688900 0.546200 0.476500
vn 0.804100 0.000000 0.594500
vn 0.688900 -0.546200 0.476500
vn 0.412800 0.877000 0.245800
vn 0.412800 -0.877000 0.245800
vn 0.000000 0.000000 1.000000
vn 0.000000 -0.610700 0.791800
vn 0.000000 0.914100 0.405400
vn 0.000000 0.610700 0.791800
vn 0.000000 -0.914100 0.405400
vn -0.804100 0.000000 0.594500
vn -0.688900 -0.546200 0.476500
vn -0.412800 0.877000 0.245800
vn -0.688900 0.546200 0.476500
vn -0.412800 -0.877000 0.245800
vn 0.000000 1.000000 0.000000
vn 0.000000 -1.000000 0.000000
usemtl material0
s 1
f 4//1 3//2 8//3 9//4
f 2//5 1//6 6//7 7//8
f 5//9 4//1 9//4 10//10
f 3//2 2//5 7//8 8//3
f 10//10 9//4 14//11 15//12
f 8//3 7//8 12//13 13//14
f 9//4 8//3 13//14 14//11
f 7//8 6//7 11//15 12//13
f 15//12 14//11 20//16 21//17
f 13//14 12//13 18//18 19//19
f 14//11 13//14 19//19 20//16
f 12//13 11//15 17//20 18//18
f 21//17 20//16 26//21 27//22
f 19//19 18//18 24//23 25//24
f 20//16 19//19 25//24 26//21
f 18//18 17//20 23//25 24//23
f 25//24 24//23 29//26 30//27
f 26//21 25//24 30//27 31//28
f 24//23 23//25 28//29 29//26
f 27//22 26//21 31//28 32//30
f 31//28 30//27 35//31 36//32
f 29//26 28//29 33//33 34//34
f 32//30 31//28 36//32 37//35
f 30//27 29//26 34//34 35//31
f 36//32 35//31 40//36 41//37
f 34//34 33//33 38//38 39//39
f 37//35 36//32 41//37 42//40
f 35//31 34//34 39//39 40//36
f 1//6 16//41 6//7
f 22//42 5//9 10//10
f 6//7 16//41 11//15
f 22//42 10//10 15//12
f 11//15 16//41 17//20
f 22//42 15//12 21//17
f 17//20 16//41 23//25
f 22//42 21//17 27//22
f 23//25 16//41 28//29
f 22//42 27//22 32//30
f 28//29 16//41 33//33
f 22//42 32//30 37//35
f 22//42 37//35 42//40
f 33//33 16//41 38//38
f 22//42 42//40 5//9
f 41//37 40//36 3//2 4//1
f 39//39 38//38 1//6 2//5
f 42//40 41//37 4//1 5//9
f 40//36 39//39 2//5 3//2
f 38//38 16//41 1//6
usemtl material1
f 46//1 45//2 50//3 51//4
f 44//5 43//6 48//7 49//8
f 47//9 46//1 51//4 52//10
f 45//2 44//5 49//8 50//3
f 52//10 51//4 56//11 57//12
f 50//3 49//8 54//13 55//14
f 51//4 50//3 55//14 56//11
f 49//8 48//7 53//15 54//13
f 57//12 56//11 62//16 63//17
f 55//14 54//13 60//18 61//19
f 56//11 55//14 61//19 62//16
f 54//13 53//15 59//20 60//18
f 63//17 62//16 68//21 69//22
f 61//19 60//18 66//23 67//24
f 62//16 61//19 67//24 68//21
f 60//18 59//20 65//25 66//23
f 67//24 66//23 71//26 72//27
f 68//21 67//24 72//27 73//28
f 66//23 65//25 70//29 71//26
f 69//22 68//21 73//28 74//30
f 73//28 72//27 77//31 78//32
f 71//26 70//29 75//33 76//34
f 74//30 73//28 78//32 79//35
f 72//27 71//26 76//34 77//31
f 78//32 77//31 82//36 83//37
f 76//34 75//33 80//38 81//39
f 79//35 78//32 83//37 84//40
f 77//31 76//34 81//39 82//36
f 43//6 58//41 48//7
f 64//42 47//9 52//10
f 48//7 58//41 53//15
f 64//42 52//10 57//12
f 53//15 58//41 59//20
f 64//42 57//12 63//17
f 59//20 58//41 65//25
f 64//42 63//17 69//22
f 65//25 58//41 70//29
f 64//42 69//22 74//30
f 70//29 58//41 75//33
f 64//42 74//30 79//35
f 64//42 79//35 84//40
f 75//33 58//41 80//38
f 64//42 84//40 47//9
f 83//37 82//36 45//2 46//1
f 81//39 80//38 43//6 44//5
f 84//40 83//37 46//1 47//9
f 82//36 81//39 44//5 45//2
f 80//38 58//41 43//6
usemtl material2
f 88//1 87//2 92//3 93//4
f 86//5 85//6 90//7 91//8
f 89//9 88//1 93//4 94//10
f 87//2 86//5 91//8 92//3
f 94//10 93//4 98//11 99//12
f 92//3 91//8 96//13 97//14
f 93//4 92//3 97//14 98//11
f 91//8 90//7 95//15 96//13
f 99//12 98//11 104//16 105//17
f 97//14 96//13 102//18 103//19
f 98//11 97//14 103//19 104//16
f 96//13 95//15 101//20 102//18
f 105//17 104//16 110//21 111//22
f 103//19 102//18 108//23 109//24
f 104//16 103//19 109//24 110//21
f 102//18 101//20 107//25 108//23
f 109//24 108//23 113//26 114//27
f 110//21 109//24 114//27 115//28
f 108//23 107//25 112//29 113//26
f 111//22 110//21 115//28 116//30
f 115//28 114//27 119//31 120//32
f 113//26 112//29 117//33 118//34
f 116//30 115//28 120//32 121//35
f 114//27 113//26 118//34 119//31
f 120//32 119//31 124//36 125//37
f 118//34 117//33 122//38 123//39
f 121//35 120//32 125//37 126//40
f 119//31 118//34 123//39 124//36
f 85//6 100//41 90//7
f 106//42 89//9 94//10
f 90//7 100//41 95//15
f 106//42 94//10 99//12
f 95//15 100//41 101//20
f 106//42 99//12 105//17
f 101//20 100//41 107//25
f 106//42 105//17 111//22
f 107//25 100//41 112//29
f 106//42 111//22 116//30
f 112//29 100//41 117//33
f 106//42 116//30 121//35
f 106//42 121//35 126//40
f 117//33 100//41 122//38
f 106//42 126//40 89//9
f 125//37 124//36 87//2 88//1
f 123//39 122//38 85//6 86//5
f 126//40 125//37 88//1 89//9
f 124//36 123//39 86//5 87//2
f 122//38 100//41 85//6
